<svg xmlns="http://www.w3.org/2000/svg" width="512" height="512" fill="none"><g clip-path="url(#a)"><path fill="url(#b)" d="M266.392 430c-4.619 8-16.166 8-20.784 0L44.6898 82c-4.6188-8 1.1547-18 10.3923-18H456.918c9.238 0 15.011 10 10.392 18L266.392 430Z"/><g style="mix-blend-mode:overlay"><mask id="d" width="354" height="336" x="73" y="139" maskUnits="userSpaceOnUse" style="mask-type:alpha"><path fill="url(#c)" d="M274 161c-84.5-59-200.5 22.5-200.5 22.5l179 291.5 174-291.5S358.5 220 274 161Z"/></mask><g mask="url(#d)"><path fill="#001AFF" d="M266.392 430c-4.619 8-16.166 8-20.784 0L44.6898 82c-4.6188-8 1.1547-18 10.3923-18H456.918c9.238 0 15.011 10 10.392 18L266.392 430Z"/></g></g></g><defs><linearGradient id="b" x1="494" x2="41" y1="87" y2="309" gradientUnits="userSpaceOnUse"><stop stop-color="#7A85EC"/><stop offset="1" stop-color="#3DDCFF"/></linearGradient><linearGradient id="c" x1="250" x2="250" y1="139.563" y2="475" gradientUnits="userSpaceOnUse"><stop stop-color="#7696AD"/><stop offset="1" stop-color="#008FF6" stop-opacity="0"/></linearGradient><clipPath id="a"><path fill="#fff" d="M0 0h512v512H0z"/></clipPath></defs></svg>
