<svg xmlns="http://www.w3.org/2000/svg" viewBox="0 0 65 65" width="55"><path d="M2.5 2.5h60v60h-60z"/><g fill="#fff"><path d="M9 51.3h22.5V55H9zM8 18l1.8-1.6a1.9 1.9 0 0 0 1.4.9c.7 0 1-.4 1-1.3v-6H15v6a3.5 3.5 0 0 1-.9 2.6 3.6 3.6 0 0 1-2.6 1A3.8 3.8 0 0 1 8.1 18ZM16 10h7.5v2.2h-5v1.4H23v2h-4.4v1.5h5v2.2H16ZM27.2 12.3h-2.8V10h8.2v2.3h-2.8v7h-2.6zM9.1 23h4.4a3.5 3.5 0 0 1 2.6 1 2 2 0 0 1 .6 1.4 2.2 2.2 0 0 1-1.4 2.1 2.3 2.3 0 0 1 1.8 2.3c0 1.6-1.3 2.6-3.5 2.6H9zm5 3c0-.6-.4-.8-1.2-.8h-1.2v1.6h1.2c.8 0 1.3-.3 1.3-.8zm-.9 2.6h-1.5v1.8h1.6c.8 0 1.2-.3 1.2-.9 0-.5-.4-.9-1.3-.9zM18 23h4.1a4.2 4.2 0 0 1 3 1 3 3 0 0 1 .9 2.3 3 3 0 0 1-2 2.9l2.3 3.2h-3l-1.9-2.8h-.8v2.8H18Zm4 4.6c.9 0 1.4-.5 1.4-1.1 0-.8-.5-1.2-1.4-1.2h-1.4v2.3z"/><path d="M29.6 23H32l4 9.4h-2.8l-.7-1.6H29l-.7 1.6h-2.7zm2.3 5.7-1-2.6-1.1 2.6zM36.5 23H39v9.4h-2.6zM40 23h2.5l3.4 5v-5h2.5v9.4h-2.2l-3.6-5.1v5.1h-2.5zM48.9 31l1.4-1.7a4.8 4.8 0 0 0 3 1.1c.7 0 1-.2 1-.7 0-.3-.2-.5-1.5-.9-2-.4-3.5-1-3.5-2.9 0-1.7 1.3-3 3.6-3a5.9 5.9 0 0 1 3.8 1.3L55.5 26a4.6 4.6 0 0 0-2.6-1c-.7 0-1 .3-1 .7 0 .4.4.6 1.7.9 2.1.4 3.4 1.1 3.4 2.9 0 2-1.5 3-3.8 3A6.6 6.6 0 0 1 49 31Z"/></g><path fill="none" d="M0 0h105v105H0Z"/></svg>
