<svg xmlns="http://www.w3.org/2000/svg" class="sponsor-icon" width="664" height="23" fill="none" style="width:196px" viewBox="0 0 664 82"><path class="sponsor-name" fill="#fff" fill-rule="evenodd" d="M522.766 81.2183c-21.66 0-37.931-16.8143-37.931-39.4576s16.271-39.45766 37.931-39.45766c18.642 0 31.573 10.87326 34.913 26.79086h-15.517c-2.909-6.2774-8.836-11.7701-19.396-11.7701-12.716 0-22.63 10.3128-22.63 24.4369 0 14.124 9.914 24.4368 22.63 24.4368 10.56 0 16.487-5.4927 19.396-11.77h15.517c-3.34 15.9175-16.271 26.7908-34.913 26.7908ZM3.40918 79.4811V3.76335H37.1577c5.4084 0 10.1678 1.00957 14.2782 3.02871 4.1104 1.94702 7.2833 4.79544 9.5188 8.54524 2.3076 3.6778 3.4614 7.9324 3.4614 12.7639 0 4.9757-1.1538 9.3385-3.4614 13.0883-2.2355 3.6778-5.4084 6.5262-9.5188 8.5453-4.1104 2.0192-8.8338 3.0287-14.1701 3.0287H19.5262v26.7176H3.40918ZM34.3453 39.3507c2.596 0 4.9036-.4327 6.9228-1.298 2.0191-.9375 3.5695-2.2355 4.6512-3.8941C47.0731 32.5 47.65 30.4809 47.65 28.1012c0-2.1634-.5769-4.0743-1.7307-5.7329-1.0817-1.6586-2.6321-2.9206-4.6512-3.7859-2.0192-.9375-4.3268-1.4062-6.9228-1.4062H19.5262v22.1745h14.8191ZM205.852 3.76335V79.4811h57.005V66.0682h-40.888V47.1388h30.936V33.9423h-30.936V17.1762h40.888V3.76335h-57.005ZM394.933 79.4811V3.76335h57.005V17.1762h-40.887v16.7661h30.936v13.1965h-30.936v18.9294h40.887v13.4129h-57.005Zm216.458 0V17.1762h-25.96V3.76335h68.254V17.1762h-26.069v62.3049h-16.225ZM101.953 3.76335V79.4811h16.117V50.6002h13.846c3.173 0 5.769.3966 7.788 1.1898 2.019.7933 3.569 2.0552 4.651 3.7859 1.082 1.7307 1.839 4.0743 2.272 7.0309l2.271 16.8743h17.307l-3.137-18.1723c-.649-3.7498-1.803-6.7064-3.461-8.8698-1.659-2.1633-3.822-3.7137-6.49-4.6512-2.596-.9375-5.878-1.4783-9.844-1.6225v-3.4614c3.894-.3606 7.392-1.0817 10.493-2.1634 3.1-1.1538 5.733-3.0647 7.896-5.7329 2.163-2.7402 3.245-6.418 3.245-11.0331 0-3.9662-1.046-7.4636-3.137-10.4924-2.019-3.0287-4.976-5.37231-8.87-7.03088-3.894-1.65858-8.473-2.48787-13.737-2.48787h-37.21Zm42.835 31.15245c-2.164 1.6586-5.084 2.4879-8.762 2.4879H118.07V17.1762h17.956c3.678 0 6.598.8654 8.762 2.596 2.163 1.7307 3.245 4.2186 3.245 7.4636 0 3.3893-1.082 5.9493-3.245 7.68Zm161.585 45.3749V27.7533c0-13.2298 10.725-23.95462 23.955-23.95462h27.166V17.6604h-26.479c-4.41 0-7.985 3.5749-7.985 7.9848v10.8246h27.616v13.9735H323.03v29.8474h-16.657Z" clip-rule="evenodd"/></svg>
